<?xml version="1.0" encoding="utf-8"?>
<!-- Generated by IcoMoon.io -->
<!DOCTYPE svg PUBLIC "-//W3C//DTD SVG 1.1//EN" "http://www.w3.org/Graphics/SVG/1.1/DTD/svg11.dtd">
<svg version="1.1" xmlns="http://www.w3.org/2000/svg" xmlns:xlink="http://www.w3.org/1999/xlink" width="32" height="32" viewBox="0 0 32 32">
<path d="M16 12.15v-6.305l4 0.428v5.449l-4 0.429zM13 12.472l-4 0.429v-7.804l4 0.428v6.948zM23 11.4v-4.806l3 0.321v4.164l-3 0.321zM6.5 4c-0.276 0-0.5 0.216-0.5 0.499v24.001c0 0.276 0.232 0.499 0.5 0.499 0.276 0 0.5-0.216 0.5-0.499v-24.001c0-0.276-0.232-0.499-0.5-0.499v0zM8 4v10l19-2v-6l-19-2z"></path>
</svg>
