<?xml version="1.0" encoding="utf-8"?>
<!-- Generated by IcoMoon.io -->
<!DOCTYPE svg PUBLIC "-//W3C//DTD SVG 1.1//EN" "http://www.w3.org/Graphics/SVG/1.1/DTD/svg11.dtd">
<svg version="1.1" xmlns="http://www.w3.org/2000/svg" xmlns:xlink="http://www.w3.org/1999/xlink" width="12" height="28" viewBox="0 0 12 28">
<path d="M11 5c0 0.547-0.453 1-1 1h-2v16h2c0.547 0 1 0.453 1 1 0 0.266-0.109 0.516-0.297 0.703l-4 4c-0.187 0.187-0.438 0.297-0.703 0.297s-0.516-0.109-0.703-0.297l-4-4c-0.187-0.187-0.297-0.438-0.297-0.703 0-0.547 0.453-1 1-1h2v-16h-2c-0.547 0-1-0.453-1-1 0-0.266 0.109-0.516 0.297-0.703l4-4c0.187-0.187 0.438-0.297 0.703-0.297s0.516 0.109 0.703 0.297l4 4c0.187 0.187 0.297 0.438 0.297 0.703z"></path>
</svg>
