<?xml version="1.0" encoding="utf-8"?>
<!-- Generated by IcoMoon.io -->
<!DOCTYPE svg PUBLIC "-//W3C//DTD SVG 1.1//EN" "http://www.w3.org/Graphics/SVG/1.1/DTD/svg11.dtd">
<svg version="1.1" xmlns="http://www.w3.org/2000/svg" xmlns:xlink="http://www.w3.org/1999/xlink" width="36" height="28" viewBox="0 0 36 28">
<path d="M30 8v12h-26v-12h26zM32 17h2v-6h-2v-4.5c0-0.281-0.219-0.5-0.5-0.5h-29c-0.281 0-0.5 0.219-0.5 0.5v15c0 0.281 0.219 0.5 0.5 0.5h29c0.281 0 0.5-0.219 0.5-0.5v-4.5zM36 11v6c0 1.109-0.891 2-2 2v2.5c0 1.375-1.125 2.5-2.5 2.5h-29c-1.375 0-2.5-1.125-2.5-2.5v-15c0-1.375 1.125-2.5 2.5-2.5h29c1.375 0 2.5 1.125 2.5 2.5v2.5c1.109 0 2 0.891 2 2z"></path>
</svg>
