<?xml version="1.0" encoding="utf-8"?>
<!-- Generated by IcoMoon.io -->
<!DOCTYPE svg PUBLIC "-//W3C//DTD SVG 1.1//EN" "http://www.w3.org/Graphics/SVG/1.1/DTD/svg11.dtd">
<svg version="1.1" xmlns="http://www.w3.org/2000/svg" xmlns:xlink="http://www.w3.org/1999/xlink" width="32" height="32" viewBox="0 0 32 32">
<path d="M3 12.5v-0.5l5-8h15l5 8v16h-25v-15.5zM4.225 12h22.55l-4.375-7h-13.8l-4.375 7zM4 13v14h23v-14h-23zM12.997 18h5.005c1.102 0 1.997 0.895 1.997 2 0 1.112-0.894 2-1.997 2h-5.005c-1.102 0-1.997-0.895-1.997-2 0-1.112 0.894-2 1.997-2zM13.003 19c-0.554 0-1.003 0.444-1.003 1 0 0.552 0.438 1 1.003 1h4.994c0.554 0 1.003-0.444 1.003-1 0-0.552-0.438-1-1.003-1h-4.994z"></path>
</svg>
