<?xml version="1.0" encoding="utf-8"?>
<!-- Generated by IcoMoon.io -->
<!DOCTYPE svg PUBLIC "-//W3C//DTD SVG 1.1//EN" "http://www.w3.org/Graphics/SVG/1.1/DTD/svg11.dtd">
<svg version="1.1" xmlns="http://www.w3.org/2000/svg" xmlns:xlink="http://www.w3.org/1999/xlink" width="32" height="32" viewBox="0 0 32 32">
<path d="M27 27h-10v-1h10v-2h-10v-1h10v-2h-10v-1h10v-2h-10v-1h10c-0.005-1.655-1.344-2.995-3-3v-3.501c0-4.142-3.366-7.499-7.5-7.499-4.142 0-7.5 3.357-7.5 7.499v3.501c-1.658 0.005-3 1.34-3 3.009v9.981c0 1.662 1.346 3.009 3.009 3.009h14.982c1.659 0 3.004-1.332 3.009-3zM12 14v-3.499c0-2.492 2.015-4.501 4.5-4.501 2.48 0 4.5 2.015 4.5 4.501v3.499h-9z"></path>
</svg>
