<?xml version="1.0" encoding="utf-8"?>
<!-- Generated by IcoMoon.io -->
<!DOCTYPE svg PUBLIC "-//W3C//DTD SVG 1.1//EN" "http://www.w3.org/Graphics/SVG/1.1/DTD/svg11.dtd">
<svg version="1.1" xmlns="http://www.w3.org/2000/svg" xmlns:xlink="http://www.w3.org/1999/xlink" width="32" height="32" viewBox="0 0 32 32">
<path d="M17 19.874c-0.32 0.082-0.655 0.126-1 0.126-2.209 0-4-1.791-4-4s1.791-4 4-4c0.345 0 0.68 0.044 1 0.126-1.725 0.444-3 2.010-3 3.874s1.275 3.43 3 3.874v0zM16 22c3.314 0 6-2.686 6-6s-2.686-6-6-6c-3.314 0-6 2.686-6 6s2.686 6 6 6v0z"></path>
</svg>
