<?xml version="1.0" encoding="utf-8"?>
<!-- Generated by IcoMoon.io -->
<!DOCTYPE svg PUBLIC "-//W3C//DTD SVG 1.1//EN" "http://www.w3.org/Graphics/SVG/1.1/DTD/svg11.dtd">
<svg version="1.1" xmlns="http://www.w3.org/2000/svg" xmlns:xlink="http://www.w3.org/1999/xlink" width="32" height="32" viewBox="0 0 32 32">
<path d="M19 3v6.002c0 1.111 0.898 1.998 2.006 1.998h4.994v17.003c0 1.107-0.894 1.997-1.997 1.997h-15.005c-1.107 0-1.997-0.899-1.997-2.007v-22.985c0-1.109 0.899-2.007 2.009-2.007h9.991zM20 3v5.997c0 0.554 0.451 1.003 0.991 1.003h5.009l-6-7zM10 16v11h13v-11h-13zM13 17v4h7v-4h-7zM13 22v4h7v-4h-7zM11 17v1h1v-1h-1zM11 19v1h1v-1h-1zM11 21v1h1v-1h-1zM11 23v1h1v-1h-1zM11 25v1h1v-1h-1zM21 17v1h1v-1h-1zM21 19v1h1v-1h-1zM21 21v1h1v-1h-1zM21 23v1h1v-1h-1zM21 25v1h1v-1h-1z"></path>
</svg>
