<?xml version="1.0" encoding="utf-8"?>
<!-- Generated by IcoMoon.io -->
<!DOCTYPE svg PUBLIC "-//W3C//DTD SVG 1.1//EN" "http://www.w3.org/Graphics/SVG/1.1/DTD/svg11.dtd">
<svg version="1.1" xmlns="http://www.w3.org/2000/svg" xmlns:xlink="http://www.w3.org/1999/xlink" width="32" height="32" viewBox="0 0 32 32">
<path d="M14.007 29h-7.010c-1.107 0-1.997-0.899-1.997-2.007v-22.985c0-1.109 0.899-2.007 2.009-2.007h9.991v6.002c0 1.111 0.898 1.998 2.006 1.998h4.994v13.929l-3.5-5.929-6.493 11zM18 2v5.997c0 0.554 0.451 1.003 0.991 1.003h5.009l-6-7zM20.5 20l6.5 11h-13l6.5-11zM20 24v3h1v-3h-1zM20 28v1h1v-1h-1z"></path>
</svg>
