<?xml version="1.0" encoding="utf-8"?>
<!-- Generated by IcoMoon.io -->
<!DOCTYPE svg PUBLIC "-//W3C//DTD SVG 1.1//EN" "http://www.w3.org/Graphics/SVG/1.1/DTD/svg11.dtd">
<svg version="1.1" xmlns="http://www.w3.org/2000/svg" xmlns:xlink="http://www.w3.org/1999/xlink" width="10" height="28" viewBox="0 0 10 28">
<path d="M8 19.5v3.5c0 0.547-0.453 1-1 1h-4c-0.547 0-1-0.453-1-1v-3.5c0-0.547 0.453-1 1-1h4c0.547 0 1 0.453 1 1zM8.469 3l-0.438 12c-0.016 0.547-0.484 1-1.031 1h-4c-0.547 0-1.016-0.453-1.031-1l-0.438-12c-0.016-0.547 0.422-1 0.969-1h5c0.547 0 0.984 0.453 0.969 1z"></path>
</svg>
