<?xml version="1.0" encoding="utf-8"?>
<!-- Generated by IcoMoon.io -->
<!DOCTYPE svg PUBLIC "-//W3C//DTD SVG 1.1//EN" "http://www.w3.org/Graphics/SVG/1.1/DTD/svg11.dtd">
<svg version="1.1" xmlns="http://www.w3.org/2000/svg" xmlns:xlink="http://www.w3.org/1999/xlink" width="26" height="28" viewBox="0 0 26 28">
<path d="M24 20.5v-11c0-0.828-0.672-1.5-1.5-1.5h-11c-0.828 0-1.5-0.672-1.5-1.5v-1c0-0.828-0.672-1.5-1.5-1.5h-5c-0.828 0-1.5 0.672-1.5 1.5v15c0 0.828 0.672 1.5 1.5 1.5h19c0.828 0 1.5-0.672 1.5-1.5zM26 9.5v11c0 1.922-1.578 3.5-3.5 3.5h-19c-1.922 0-3.5-1.578-3.5-3.5v-15c0-1.922 1.578-3.5 3.5-3.5h5c1.922 0 3.5 1.578 3.5 3.5v0.5h10.5c1.922 0 3.5 1.578 3.5 3.5z"></path>
</svg>
