<?xml version="1.0" encoding="utf-8"?>
<!-- Generated by IcoMoon.io -->
<!DOCTYPE svg PUBLIC "-//W3C//DTD SVG 1.1//EN" "http://www.w3.org/Graphics/SVG/1.1/DTD/svg11.dtd">
<svg version="1.1" xmlns="http://www.w3.org/2000/svg" xmlns:xlink="http://www.w3.org/1999/xlink" width="28" height="28" viewBox="0 0 28 28">
<path d="M11.203 21.156l4.234-4.234-4.359-4.359-1.375 1.375 3 2.984-1.5 1.5-4.359-4.359 4.359-4.359 0.625 0.625 1.359-1.359-1.984-2-7.094 7.094zM16.797 21.031l7.094-7.094-7.094-7.094-4.234 4.234 4.359 4.359 1.375-1.375-3-2.984 1.5-1.5 4.359 4.359-4.359 4.359-0.625-0.625-1.359 1.375zM28 14c0 7.734-6.266 14-14 14s-14-6.266-14-14 6.266-14 14-14 14 6.266 14 14z"></path>
</svg>
