<?xml version="1.0" encoding="utf-8"?>
<!-- Generated by IcoMoon.io -->
<!DOCTYPE svg PUBLIC "-//W3C//DTD SVG 1.1//EN" "http://www.w3.org/Graphics/SVG/1.1/DTD/svg11.dtd">
<svg version="1.1" xmlns="http://www.w3.org/2000/svg" xmlns:xlink="http://www.w3.org/1999/xlink" width="28" height="28" viewBox="0 0 28 28">
<path d="M7 0c0.547 0 1 0.453 1 1v13.922l8.375-6.703c0.172-0.141 0.406-0.219 0.625-0.219 0.547 0 1 0.453 1 1v5.922l8.375-6.703c0.172-0.141 0.406-0.219 0.625-0.219 0.547 0 1 0.453 1 1v18c0 0.547-0.453 1-1 1h-26c-0.547 0-1-0.453-1-1v-26c0-0.547 0.453-1 1-1h6z"></path>
</svg>
