<?xml version="1.0" encoding="utf-8"?>
<!-- Generated by IcoMoon.io -->
<!DOCTYPE svg PUBLIC "-//W3C//DTD SVG 1.1//EN" "http://www.w3.org/Graphics/SVG/1.1/DTD/svg11.dtd">
<svg version="1.1" xmlns="http://www.w3.org/2000/svg" xmlns:xlink="http://www.w3.org/1999/xlink" width="10" height="28" viewBox="0 0 10 28">
<path d="M10 21v2c0 0.547-0.453 1-1 1h-8c-0.547 0-1-0.453-1-1v-2c0-0.547 0.453-1 1-1h1v-6h-1c-0.547 0-1-0.453-1-1v-2c0-0.547 0.453-1 1-1h6c0.547 0 1 0.453 1 1v9h1c0.547 0 1 0.453 1 1zM8 3v3c0 0.547-0.453 1-1 1h-4c-0.547 0-1-0.453-1-1v-3c0-0.547 0.453-1 1-1h4c0.547 0 1 0.453 1 1z"></path>
</svg>
