<?xml version="1.0" encoding="utf-8"?>
<!-- Generated by IcoMoon.io -->
<!DOCTYPE svg PUBLIC "-//W3C//DTD SVG 1.1//EN" "http://www.w3.org/Graphics/SVG/1.1/DTD/svg11.dtd">
<svg version="1.1" xmlns="http://www.w3.org/2000/svg" xmlns:xlink="http://www.w3.org/1999/xlink" width="28" height="28" viewBox="0 0 28 28">
<path d="M6 18.5v1c0 0.266-0.234 0.5-0.5 0.5h-1c-0.266 0-0.5-0.234-0.5-0.5v-1c0-0.266 0.234-0.5 0.5-0.5h1c0.266 0 0.5 0.234 0.5 0.5zM6 14.5v1c0 0.266-0.234 0.5-0.5 0.5h-1c-0.266 0-0.5-0.234-0.5-0.5v-1c0-0.266 0.234-0.5 0.5-0.5h1c0.266 0 0.5 0.234 0.5 0.5zM6 10.5v1c0 0.266-0.234 0.5-0.5 0.5h-1c-0.266 0-0.5-0.234-0.5-0.5v-1c0-0.266 0.234-0.5 0.5-0.5h1c0.266 0 0.5 0.234 0.5 0.5zM24 18.5v1c0 0.266-0.234 0.5-0.5 0.5h-15c-0.266 0-0.5-0.234-0.5-0.5v-1c0-0.266 0.234-0.5 0.5-0.5h15c0.266 0 0.5 0.234 0.5 0.5zM24 14.5v1c0 0.266-0.234 0.5-0.5 0.5h-15c-0.266 0-0.5-0.234-0.5-0.5v-1c0-0.266 0.234-0.5 0.5-0.5h15c0.266 0 0.5 0.234 0.5 0.5zM24 10.5v1c0 0.266-0.234 0.5-0.5 0.5h-15c-0.266 0-0.5-0.234-0.5-0.5v-1c0-0.266 0.234-0.5 0.5-0.5h15c0.266 0 0.5 0.234 0.5 0.5zM26 21.5v-13c0-0.266-0.234-0.5-0.5-0.5h-23c-0.266 0-0.5 0.234-0.5 0.5v13c0 0.266 0.234 0.5 0.5 0.5h23c0.266 0 0.5-0.234 0.5-0.5zM28 4.5v17c0 1.375-1.125 2.5-2.5 2.5h-23c-1.375 0-2.5-1.125-2.5-2.5v-17c0-1.375 1.125-2.5 2.5-2.5h23c1.375 0 2.5 1.125 2.5 2.5z"></path>
</svg>
